<?xml version="1.0" encoding="utf-8"?>
<svg version="1.1" xmlns:xlink="http://www.w3.org/1999/xlink" width="358px" height="262px" xmlns="http://www.w3.org/2000/svg">
  <defs>
    <mask fill="white" id="clip22">
      <path d="M 0 252  L 0 66.3870967741936  L 0 0  L 348 0  L 348 252  L 0 252  Z " fill-rule="evenodd" />
    </mask>
    <filter x="306px" y="515px" width="358px" height="262px" filterUnits="userSpaceOnUse" id="filter23">
      <feOffset dx="5" dy="5" in="SourceAlpha" result="shadowOffsetInner" />
      <feGaussianBlur stdDeviation="2.5" in="shadowOffsetInner" result="shadowGaussian" />
      <feComposite in2="shadowGaussian" operator="atop" in="SourceAlpha" result="shadowComposite" />
      <feColorMatrix type="matrix" values="0 0 0 0 0  0 0 0 0 0  0 0 0 0 0  0 0 0 0.349019607843137 0  " in="shadowComposite" />
    </filter>
    <g id="widget24">
      <path d="M 0 252  L 0 66.3870967741936  L 0 0  L 348 0  L 348 252  L 0 252  Z " fill-rule="nonzero" fill="#ffffff" stroke="none" transform="matrix(1 0 0 1 306 515 )" />
      <path d="M 0 252  L 0 66.3870967741936  L 0 0  L 348 0  L 348 252  L 0 252  Z " stroke-width="2" stroke="#aaaaaa" fill="none" transform="matrix(1 0 0 1 306 515 )" mask="url(#clip22)" />
    </g>
  </defs>
  <g transform="matrix(1 0 0 1 -306 -515 )">
    <use xlink:href="#widget24" filter="url(#filter23)" />
    <use xlink:href="#widget24" />
  </g>
</svg>